<svg version="1.1" id="Layer_1" xmlns="http://www.w3.org/2000/svg" xmlns:xlink="http://www.w3.org/1999/xlink" x="0px" y="0px"
	 width="100%" viewBox="0 0 500 500" enable-background="new 0 0 500 500" xml:space="preserve">
<path fill="#000000" opacity="1.000000" stroke="none" 
	d="
M288.000000,501.000000 
	C192.000015,501.000000 96.500046,501.000000 1.000051,501.000000 
	C1.000034,334.333405 1.000034,167.666794 1.000017,1.000141 
	C167.666565,1.000094 334.333130,1.000094 500.999756,1.000047 
	C500.999847,167.666519 500.999847,334.333038 500.999939,500.999786 
	C430.166656,501.000000 359.333344,501.000000 288.000000,501.000000 
M224.497406,150.062424 
	C218.058762,150.062424 211.620102,150.062424 205.136627,150.062424 
	C188.741623,197.528839 172.488297,244.585114 156.109955,292.003296 
	C165.210648,292.003296 173.865219,292.124634 182.508087,291.861694 
	C183.692703,291.825684 185.414307,290.087280 185.875854,288.779968 
	C188.855713,280.339600 191.687546,271.840149 194.274582,263.271515 
	C195.200943,260.203278 196.626572,259.172638 199.863327,259.210236 
	C215.182449,259.388123 230.506104,259.395386 245.824936,259.205933 
	C249.132782,259.165039 250.359818,260.355682 251.284866,263.362183 
	C254.232208,272.941437 257.520233,282.415863 260.615875,291.747559 
	C270.597839,291.747559 280.160706,291.747559 290.074554,291.747559 
	C289.686981,290.648895 289.414856,289.890900 289.151764,289.129791 
	C274.881134,247.844559 260.613434,206.558319 246.338409,165.274597 
	C244.661819,160.425888 244.292664,153.687256 240.878433,151.270874 
	C237.271927,148.718369 230.745514,150.291519 224.497406,150.062424 
M285.860809,214.701569 
	C296.747528,233.856232 307.259125,253.238235 318.673248,272.073273 
	C324.721039,282.053009 328.100952,291.977448 327.287842,303.843658 
	C326.405518,316.720184 327.087738,329.703888 327.087738,342.794678 
	C336.651947,342.794678 345.732269,342.794678 355.199036,342.794678 
	C355.199036,325.480560 355.129242,308.372589 355.280151,291.266541 
	C355.300934,288.910645 355.948792,286.301880 357.097656,284.254150 
	C369.017914,263.008179 381.105286,241.856018 393.135040,220.671432 
	C396.763885,214.280899 400.357819,207.870560 404.197632,201.061676 
	C395.057678,201.061676 386.724457,200.877533 378.411530,201.206207 
	C376.596954,201.277954 374.110321,202.745117 373.194214,204.308533 
	C363.811462,220.320389 354.712769,236.498413 345.457306,252.585464 
	C344.530304,254.196655 343.092834,255.514130 341.892303,256.967926 
	C340.638367,255.535538 339.115295,254.260406 338.172150,252.646408 
	C328.888245,236.758972 319.725616,220.800674 310.444061,204.911880 
	C309.595947,203.460037 308.195831,201.290253 306.993347,201.250977 
	C297.655792,200.946030 288.303833,201.082626 278.166412,201.082626 
	C280.943451,206.026611 283.204987,210.052887 285.860809,214.701569 
M147.976425,290.494629 
	C147.976425,260.751923 147.976425,231.009186 147.976425,201.409729 
	C138.248840,201.409729 129.185867,201.409729 119.996880,201.409729 
	C119.996880,232.403198 120.031166,263.050323 119.953217,293.697144 
	C119.943527,297.505005 119.614304,301.359985 118.953842,305.108673 
	C117.352859,314.195587 112.037918,319.098206 102.950462,320.317352 
	C90.607018,321.973297 79.839928,316.151184 73.410912,304.344360 
	C70.611938,299.204041 70.169479,299.180389 66.427803,303.830475 
	C64.343376,306.420990 62.236130,308.993988 60.097042,311.539490 
	C52.259609,320.865967 52.304203,321.986603 61.003105,330.834137 
	C61.586559,331.427551 62.177063,332.020752 62.815693,332.552277 
	C78.932068,345.965607 97.535622,347.143005 116.973083,343.132996 
	C132.972382,339.832367 142.541901,329.513885 145.808838,313.781311 
	C147.317764,306.514709 147.301178,298.931335 147.976425,290.494629 
M386.615051,329.299866 
	C386.317352,330.413696 385.942902,331.513367 385.734131,332.643646 
	C384.104706,341.465027 388.777618,348.906250 397.369537,351.223724 
	C406.965271,353.811981 416.125824,349.562408 419.031525,341.174774 
	C421.838837,333.071198 418.374207,324.524017 410.879883,321.064606 
	C401.800476,316.873596 391.739105,320.047821 386.615051,329.299866 
z"/>
<path fill="#FDFDFD" opacity="1.000000" stroke="none" 
	d="
M224.996017,150.062424 
	C230.745514,150.291519 237.271927,148.718369 240.878433,151.270874 
	C244.292664,153.687256 244.661819,160.425888 246.338409,165.274597 
	C260.613434,206.558319 274.881134,247.844559 289.151764,289.129791 
	C289.414856,289.890900 289.686981,290.648895 290.074554,291.747559 
	C280.160706,291.747559 270.597839,291.747559 260.615875,291.747559 
	C257.520233,282.415863 254.232208,272.941437 251.284866,263.362183 
	C250.359818,260.355682 249.132782,259.165039 245.824936,259.205933 
	C230.506104,259.395386 215.182449,259.388123 199.863327,259.210236 
	C196.626572,259.172638 195.200943,260.203278 194.274582,263.271515 
	C191.687546,271.840149 188.855713,280.339600 185.875854,288.779968 
	C185.414307,290.087280 183.692703,291.825684 182.508087,291.861694 
	C173.865219,292.124634 165.210648,292.003296 156.109955,292.003296 
	C172.488297,244.585114 188.741623,197.528839 205.136627,150.062424 
	C211.620102,150.062424 218.058762,150.062424 224.996017,150.062424 
M214.220184,201.750198 
	C210.638519,212.882050 207.056854,224.013885 203.351212,235.531097 
	C216.561172,235.531097 229.094025,235.531097 242.138138,235.531097 
	C235.933548,216.679047 229.831100,198.137314 223.728638,179.595581 
	C223.055405,179.547623 222.382187,179.499649 221.708954,179.451691 
	C219.326370,186.645294 216.943787,193.838898 214.220184,201.750198 
z"/>
<path fill="#FDFDFD" opacity="1.000000" stroke="none" 
	d="
M285.663696,214.390381 
	C283.204987,210.052887 280.943451,206.026611 278.166412,201.082626 
	C288.303833,201.082626 297.655792,200.946030 306.993347,201.250977 
	C308.195831,201.290253 309.595947,203.460037 310.444061,204.911880 
	C319.725616,220.800674 328.888245,236.758972 338.172150,252.646408 
	C339.115295,254.260406 340.638367,255.535538 341.892303,256.967926 
	C343.092834,255.514130 344.530304,254.196655 345.457306,252.585464 
	C354.712769,236.498413 363.811462,220.320389 373.194214,204.308533 
	C374.110321,202.745117 376.596954,201.277954 378.411530,201.206207 
	C386.724457,200.877533 395.057678,201.061676 404.197632,201.061676 
	C400.357819,207.870560 396.763885,214.280899 393.135040,220.671432 
	C381.105286,241.856018 369.017914,263.008179 357.097656,284.254150 
	C355.948792,286.301880 355.300934,288.910645 355.280151,291.266541 
	C355.129242,308.372589 355.199036,325.480560 355.199036,342.794678 
	C345.732269,342.794678 336.651947,342.794678 327.087738,342.794678 
	C327.087738,329.703888 326.405518,316.720184 327.287842,303.843658 
	C328.100952,291.977448 324.721039,282.053009 318.673248,272.073273 
	C307.259125,253.238235 296.747528,233.856232 285.663696,214.390381 
z"/>
<path fill="#FDFDFD" opacity="1.000000" stroke="none" 
	d="
M147.976349,290.993103 
	C147.301178,298.931335 147.317764,306.514709 145.808838,313.781311 
	C142.541901,329.513885 132.972382,339.832367 116.973083,343.132996 
	C97.535622,347.143005 78.932068,345.965607 62.815693,332.552277 
	C62.177063,332.020752 61.586559,331.427551 61.003105,330.834137 
	C52.304203,321.986603 52.259609,320.865967 60.097042,311.539490 
	C62.236130,308.993988 64.343376,306.420990 66.427803,303.830475 
	C70.169479,299.180389 70.611938,299.204041 73.410912,304.344360 
	C79.839928,316.151184 90.607018,321.973297 102.950462,320.317352 
	C112.037918,319.098206 117.352859,314.195587 118.953842,305.108673 
	C119.614304,301.359985 119.943527,297.505005 119.953217,293.697144 
	C120.031166,263.050323 119.996880,232.403198 119.996880,201.409729 
	C129.185867,201.409729 138.248840,201.409729 147.976425,201.409729 
	C147.976425,231.009186 147.976425,260.751923 147.976349,290.993103 
z"/>
<path fill="#FAFAFA" opacity="1.000000" stroke="none" 
	d="
M386.787109,328.955597 
	C391.739105,320.047821 401.800476,316.873596 410.879883,321.064606 
	C418.374207,324.524017 421.838837,333.071198 419.031525,341.174774 
	C416.125824,349.562408 406.965271,353.811981 397.369537,351.223724 
	C388.777618,348.906250 384.104706,341.465027 385.734131,332.643646 
	C385.942902,331.513367 386.317352,330.413696 386.787109,328.955597 
z"/>
<path fill="#050505" opacity="1.000000" stroke="none" 
	d="
M214.390701,201.391342 
	C216.943787,193.838898 219.326370,186.645294 221.708954,179.451691 
	C222.382187,179.499649 223.055405,179.547623 223.728638,179.595581 
	C229.831100,198.137314 235.933548,216.679047 242.138138,235.531097 
	C229.094025,235.531097 216.561172,235.531097 203.351212,235.531097 
	C207.056854,224.013885 210.638519,212.882050 214.390701,201.391342 
z"/>
</svg>